<mxfile host="www.draw.io" modified="2020-01-22T19:48:50.105Z" agent="Mozilla/5.0 (Windows NT 10.0; Win64; x64) AppleWebKit/537.36 (KHTML, like Gecko) Chrome/79.0.3945.130 Safari/537.36" etag="tv063VCgPoa_x6nABmGK" version="12.5.5" type="github" pages="2">
  <diagram name="Fluxo Dispatch" id="74e2e168-ea6b-b213-b513-2b3c1d86103e">
    <mxGraphModel dx="938" dy="962" grid="1" gridSize="10" guides="1" tooltips="1" connect="1" arrows="1" fold="1" page="1" pageScale="1" pageWidth="1100" pageHeight="850" background="#ffffff" math="0" shadow="0">
      <root>
        <mxCell id="0"/>
        <mxCell id="1" parent="0"/>
        <mxCell id="77e6c97f196da883-1" value="Pool" style="swimlane;html=1;childLayout=stackLayout;startSize=20;rounded=0;shadow=0;labelBackgroundColor=none;strokeWidth=1;fontFamily=Verdana;fontSize=8;align=center;" parent="1" vertex="1">
          <mxGeometry x="20" y="10" width="762" height="750" as="geometry"/>
        </mxCell>
        <mxCell id="77e6c97f196da883-2" value="MABIS" style="swimlane;html=1;startSize=20;" parent="77e6c97f196da883-1" vertex="1">
          <mxGeometry y="20" width="160" height="730" as="geometry"/>
        </mxCell>
        <mxCell id="77e6c97f196da883-8" value="nova assistencia&lt;br&gt;R40/R41P" style="rounded=1;whiteSpace=wrap;html=1;shadow=0;labelBackgroundColor=none;strokeWidth=1;fontFamily=Verdana;fontSize=8;align=center;" parent="77e6c97f196da883-2" vertex="1">
          <mxGeometry x="30" y="50" width="100" height="60" as="geometry"/>
        </mxCell>
        <mxCell id="77e6c97f196da883-26" style="edgeStyle=orthogonalEdgeStyle;rounded=1;html=1;labelBackgroundColor=none;startArrow=none;startFill=0;startSize=5;endArrow=classicThin;endFill=1;endSize=5;jettySize=auto;orthogonalLoop=1;strokeWidth=1;fontFamily=Verdana;fontSize=8" parent="77e6c97f196da883-1" source="77e6c97f196da883-8" target="77e6c97f196da883-11" edge="1">
          <mxGeometry relative="1" as="geometry"/>
        </mxCell>
        <mxCell id="77e6c97f196da883-3" value="SERVICE BUS" style="swimlane;html=1;startSize=20;" parent="77e6c97f196da883-1" vertex="1">
          <mxGeometry x="160" y="20" width="180" height="730" as="geometry"/>
        </mxCell>
        <mxCell id="77e6c97f196da883-11" value="&lt;font style=&quot;font-size: 12px&quot;&gt;disp.trydisp&lt;/font&gt;" style="rounded=1;whiteSpace=wrap;html=1;shadow=0;labelBackgroundColor=none;strokeWidth=1;fontFamily=Verdana;fontSize=8;align=center;" parent="77e6c97f196da883-3" vertex="1">
          <mxGeometry x="30" y="130" width="110" height="30" as="geometry"/>
        </mxCell>
        <mxCell id="7Eb0yTPxYlPnnwY9QFDh-11" value="&lt;font style=&quot;font-size: 12px&quot;&gt;disp.accept&lt;/font&gt;" style="rounded=1;whiteSpace=wrap;html=1;shadow=0;labelBackgroundColor=none;strokeWidth=1;fontFamily=Verdana;fontSize=8;align=center;" parent="77e6c97f196da883-3" vertex="1">
          <mxGeometry x="30" y="210" width="110" height="30" as="geometry"/>
        </mxCell>
        <mxCell id="7Eb0yTPxYlPnnwY9QFDh-31" value="disp.expire" style="rounded=1;whiteSpace=wrap;html=1;" parent="77e6c97f196da883-3" vertex="1">
          <mxGeometry x="30" y="170" width="111" height="30" as="geometry"/>
        </mxCell>
        <mxCell id="77e6c97f196da883-4" value="VIA NET" style="swimlane;html=1;startSize=20;" parent="77e6c97f196da883-1" vertex="1">
          <mxGeometry x="340" y="20" width="231" height="730" as="geometry"/>
        </mxCell>
        <mxCell id="7Eb0yTPxYlPnnwY9QFDh-4" value="" style="edgeStyle=orthogonalEdgeStyle;rounded=0;orthogonalLoop=1;jettySize=auto;html=1;" parent="77e6c97f196da883-4" source="77e6c97f196da883-9" target="77e6c97f196da883-16" edge="1">
          <mxGeometry relative="1" as="geometry"/>
        </mxCell>
        <mxCell id="77e6c97f196da883-9" value="NOVA SOLICITACAO" style="rounded=1;whiteSpace=wrap;html=1;shadow=0;labelBackgroundColor=none;strokeWidth=1;fontFamily=Verdana;fontSize=8;align=center;" parent="77e6c97f196da883-4" vertex="1">
          <mxGeometry x="50" y="50" width="100" height="60" as="geometry"/>
        </mxCell>
        <mxCell id="77e6c97f196da883-16" value="ACEITO ANTES DE X MINUTOS?" style="rhombus;whiteSpace=wrap;html=1;rounded=0;shadow=0;labelBackgroundColor=none;strokeWidth=1;fontFamily=Verdana;fontSize=8;align=center;" parent="77e6c97f196da883-4" vertex="1">
          <mxGeometry x="50" y="145" width="100" height="80" as="geometry"/>
        </mxCell>
        <mxCell id="77e6c97f196da883-35" style="edgeStyle=orthogonalEdgeStyle;rounded=1;html=1;labelBackgroundColor=none;startArrow=none;startFill=0;startSize=5;endArrow=classicThin;endFill=1;endSize=5;jettySize=auto;orthogonalLoop=1;strokeWidth=1;fontFamily=Verdana;fontSize=8" parent="77e6c97f196da883-1" source="77e6c97f196da883-16" target="77e6c97f196da883-17" edge="1">
          <mxGeometry relative="1" as="geometry"/>
        </mxCell>
        <mxCell id="77e6c97f196da883-5" value="VIA NET MONITOR" style="swimlane;html=1;startSize=20;" parent="77e6c97f196da883-1" vertex="1">
          <mxGeometry x="571" y="20" width="191" height="730" as="geometry"/>
        </mxCell>
        <mxCell id="77e6c97f196da883-17" value="salva dados e publica msg" style="rounded=1;whiteSpace=wrap;html=1;shadow=0;labelBackgroundColor=none;strokeWidth=1;fontFamily=Verdana;fontSize=8;align=center;" parent="77e6c97f196da883-5" vertex="1">
          <mxGeometry x="30" y="149.99999999999997" width="110" height="70" as="geometry"/>
        </mxCell>
        <mxCell id="7Eb0yTPxYlPnnwY9QFDh-17" value="" style="edgeStyle=orthogonalEdgeStyle;rounded=0;orthogonalLoop=1;jettySize=auto;html=1;" parent="77e6c97f196da883-1" source="77e6c97f196da883-17" target="7Eb0yTPxYlPnnwY9QFDh-11" edge="1">
          <mxGeometry relative="1" as="geometry">
            <Array as="points">
              <mxPoint x="656" y="280"/>
              <mxPoint x="245" y="280"/>
            </Array>
          </mxGeometry>
        </mxCell>
        <mxCell id="7Eb0yTPxYlPnnwY9QFDh-33" value="" style="edgeStyle=orthogonalEdgeStyle;rounded=0;orthogonalLoop=1;jettySize=auto;html=1;entryX=0;entryY=0.5;entryDx=0;entryDy=0;" parent="77e6c97f196da883-1" source="77e6c97f196da883-11" target="77e6c97f196da883-9" edge="1">
          <mxGeometry relative="1" as="geometry">
            <mxPoint x="380" y="165" as="targetPoint"/>
            <Array as="points">
              <mxPoint x="370" y="165"/>
              <mxPoint x="370" y="100"/>
            </Array>
          </mxGeometry>
        </mxCell>
        <mxCell id="7Eb0yTPxYlPnnwY9QFDh-35" value="" style="edgeStyle=orthogonalEdgeStyle;rounded=0;orthogonalLoop=1;jettySize=auto;html=1;entryX=1;entryY=0.5;entryDx=0;entryDy=0;" parent="77e6c97f196da883-1" source="77e6c97f196da883-16" target="7Eb0yTPxYlPnnwY9QFDh-31" edge="1">
          <mxGeometry relative="1" as="geometry">
            <mxPoint x="310" y="205" as="targetPoint"/>
          </mxGeometry>
        </mxCell>
      </root>
    </mxGraphModel>
  </diagram>
  <diagram id="PYx4gIAmUXT8T4D9sgRm" name="Projetos e recursos">
    <mxGraphModel dx="3921" dy="3124" grid="1" gridSize="10" guides="1" tooltips="1" connect="1" arrows="1" fold="1" page="1" pageScale="1" pageWidth="1169" pageHeight="827" math="0" shadow="0">
      <root>
        <mxCell id="7LBnpX-7nwQ7NDqRXAh6-0"/>
        <mxCell id="7LBnpX-7nwQ7NDqRXAh6-1" parent="7LBnpX-7nwQ7NDqRXAh6-0"/>
        <mxCell id="7LBnpX-7nwQ7NDqRXAh6-16" value="" style="rounded=0;whiteSpace=wrap;html=1;" vertex="1" parent="7LBnpX-7nwQ7NDqRXAh6-1">
          <mxGeometry x="-2320" y="-2370" width="830" height="530" as="geometry"/>
        </mxCell>
        <mxCell id="7LBnpX-7nwQ7NDqRXAh6-2" value="MABIS.Shared.Bot.Integration" style="rounded=1;whiteSpace=wrap;html=1;" vertex="1" parent="7LBnpX-7nwQ7NDqRXAh6-1">
          <mxGeometry x="-2280" y="-2290" width="240" height="60" as="geometry"/>
        </mxCell>
        <mxCell id="7LBnpX-7nwQ7NDqRXAh6-3" value="MABIS.Shared.Configuration" style="rounded=1;whiteSpace=wrap;html=1;" vertex="1" parent="7LBnpX-7nwQ7NDqRXAh6-1">
          <mxGeometry x="-2280" y="-2210" width="240" height="60" as="geometry"/>
        </mxCell>
        <mxCell id="7LBnpX-7nwQ7NDqRXAh6-4" value="MABIS.Shared.Dashboards" style="rounded=1;whiteSpace=wrap;html=1;" vertex="1" parent="7LBnpX-7nwQ7NDqRXAh6-1">
          <mxGeometry x="-2280" y="-2140" width="240" height="60" as="geometry"/>
        </mxCell>
        <mxCell id="7LBnpX-7nwQ7NDqRXAh6-5" value="MABIS.Shared.Dispatch" style="rounded=1;whiteSpace=wrap;html=1;" vertex="1" parent="7LBnpX-7nwQ7NDqRXAh6-1">
          <mxGeometry x="-2280" y="-2060" width="230" height="60" as="geometry"/>
        </mxCell>
        <mxCell id="7LBnpX-7nwQ7NDqRXAh6-6" value="MABIS.Shared.FNOL" style="rounded=1;whiteSpace=wrap;html=1;" vertex="1" parent="7LBnpX-7nwQ7NDqRXAh6-1">
          <mxGeometry x="-2280" y="-1980" width="230" height="60" as="geometry"/>
        </mxCell>
        <mxCell id="7LBnpX-7nwQ7NDqRXAh6-7" value="MABIS.Shared.Framework" style="rounded=1;whiteSpace=wrap;html=1;" vertex="1" parent="7LBnpX-7nwQ7NDqRXAh6-1">
          <mxGeometry x="-2010" y="-2290" width="230" height="60" as="geometry"/>
        </mxCell>
        <mxCell id="7LBnpX-7nwQ7NDqRXAh6-9" value="MABIS.Shared.Integration" style="rounded=1;whiteSpace=wrap;html=1;" vertex="1" parent="7LBnpX-7nwQ7NDqRXAh6-1">
          <mxGeometry x="-2010" y="-2210" width="230" height="60" as="geometry"/>
        </mxCell>
        <mxCell id="7LBnpX-7nwQ7NDqRXAh6-10" value="MABIS.Shared.Localization" style="rounded=1;whiteSpace=wrap;html=1;" vertex="1" parent="7LBnpX-7nwQ7NDqRXAh6-1">
          <mxGeometry x="-1450" y="-2190" width="230" height="60" as="geometry"/>
        </mxCell>
        <mxCell id="7LBnpX-7nwQ7NDqRXAh6-11" value="MABIS.Shared.Log" style="rounded=1;whiteSpace=wrap;html=1;" vertex="1" parent="7LBnpX-7nwQ7NDqRXAh6-1">
          <mxGeometry x="-2010" y="-2140" width="230" height="60" as="geometry"/>
        </mxCell>
        <mxCell id="7LBnpX-7nwQ7NDqRXAh6-12" value="MABIS.Shared.Reflection" style="rounded=1;whiteSpace=wrap;html=1;" vertex="1" parent="7LBnpX-7nwQ7NDqRXAh6-1">
          <mxGeometry x="-2010" y="-2060" width="230" height="60" as="geometry"/>
        </mxCell>
        <mxCell id="7LBnpX-7nwQ7NDqRXAh6-13" value="MABIS.Shared.Validation" style="rounded=1;whiteSpace=wrap;html=1;" vertex="1" parent="7LBnpX-7nwQ7NDqRXAh6-1">
          <mxGeometry x="-2010" y="-1980" width="230" height="60" as="geometry"/>
        </mxCell>
        <mxCell id="7LBnpX-7nwQ7NDqRXAh6-14" value="MABIS.Shared.Web" style="rounded=1;whiteSpace=wrap;html=1;" vertex="1" parent="7LBnpX-7nwQ7NDqRXAh6-1">
          <mxGeometry x="-1750" y="-2290" width="230" height="60" as="geometry"/>
        </mxCell>
        <mxCell id="7LBnpX-7nwQ7NDqRXAh6-17" style="edgeStyle=orthogonalEdgeStyle;rounded=0;orthogonalLoop=1;jettySize=auto;html=1;" edge="1" parent="7LBnpX-7nwQ7NDqRXAh6-1" source="7LBnpX-7nwQ7NDqRXAh6-15" target="7LBnpX-7nwQ7NDqRXAh6-16">
          <mxGeometry relative="1" as="geometry"/>
        </mxCell>
        <mxCell id="7LBnpX-7nwQ7NDqRXAh6-15" value="&lt;font style=&quot;font-size: 36px&quot;&gt;Mabis.Infrastructure&lt;/font&gt;" style="rounded=1;whiteSpace=wrap;html=1;fillColor=#FF9933;" vertex="1" parent="7LBnpX-7nwQ7NDqRXAh6-1">
          <mxGeometry x="-2100" y="-1760" width="390" height="70" as="geometry"/>
        </mxCell>
        <mxCell id="7LBnpX-7nwQ7NDqRXAh6-18" value="&lt;font style=&quot;font-size: 36px&quot;&gt;Proposta de mudança&lt;/font&gt;" style="text;html=1;align=center;verticalAlign=middle;resizable=0;points=[];autosize=1;" vertex="1" parent="7LBnpX-7nwQ7NDqRXAh6-1">
          <mxGeometry x="-2310" y="-2450" width="370" height="30" as="geometry"/>
        </mxCell>
        <mxCell id="7LBnpX-7nwQ7NDqRXAh6-21" value="Localization deveria ir para área de serviços ou API." style="text;html=1;align=center;verticalAlign=middle;resizable=0;points=[];autosize=1;" vertex="1" parent="7LBnpX-7nwQ7NDqRXAh6-1">
          <mxGeometry x="-1450" y="-2115" width="290" height="20" as="geometry"/>
        </mxCell>
      </root>
    </mxGraphModel>
  </diagram>
</mxfile>
